<svg id="Capa_1" enable-background="new 0 0 500.4 500.4" height="512" viewBox="0 0 500.4 500.4" width="512" xmlns="http://www.w3.org/2000/svg"><circle cx="250.2" cy="255.4" fill="#c0e0ff" r="245"/><path d="m431.931 419.716c39.321-43.461 63.269-101.092 63.269-164.316 0-5.716-.212-11.382-.597-17h-488.806c-.385 5.618-.597 11.284-.597 17 0 61.832 22.905 118.314 60.693 161.424 44.906 51.23 321.207 52.444 366.038 2.892z" fill="#fdd33a"/><path d="m422.053 430.001c8.469-8.337 16.334-17.286 23.525-26.775v-164.826h-391.255v164.174c23.207 30.837 53.525 56.02 88.518 73.109 32.419 15.832 234.991-2.148 279.212-45.682z" fill="#e0af24"/><path d="m6.574 229.4c-.833 7.894-1.283 15.901-1.348 24h489.949c-.065-8.099-.515-16.106-1.348-24z" fill="#e0af24"/><path d="m249.95 32.233-172.101 118.34v278.938c44.265 43.82 105.144 70.889 172.351 70.889 66.956 0 127.628-26.87 171.851-70.401v-279.426z" fill="#ffe7a4"/><path d="m249.95 32.233-107.101 73.644-65 44.695v35 243.938c18.902 18.711 40.841 34.355 65 46.155v-326.336c0-5.291 2.604-10.242 6.964-13.24l91.032-62.595c5.484-3.771 12.725-3.771 18.208 0l162.996 112.079v-35z" fill="#fdd33a"/><path d="m458.163 182.807c-4.013.001-8.069-1.16-11.639-3.583l-196.574-133.364-196.573 133.364c-9.491 6.44-22.404 3.965-28.843-5.525-6.439-9.491-3.965-22.404 5.525-28.843l208.232-141.274c7.04-4.776 16.278-4.776 23.317 0l208.232 141.273c9.491 6.439 11.965 19.352 5.526 28.843-4.016 5.92-10.551 9.109-17.203 9.109z" fill="#cc175d"/><path d="m469.411 144.564-169.675-115.115c-8.942-6.067-21.083-4.198-27.726 4.325-.085.109-.171.219-.256.328-7.316 9.398-5.215 23.012 4.641 29.699l170.128 115.422c3.571 2.423 7.626 3.584 11.639 3.583 6.79 0 13.459-3.323 17.45-9.481 6.194-9.55 3.219-22.37-6.201-28.761z" fill="#ff3972"/><path d="m184.45 298.4h-64c-6.904 0-12.5-5.596-12.5-12.5v-57c0-6.904 5.596-12.5 12.5-12.5h64c6.904 0 12.5 5.596 12.5 12.5v57c0 6.904-5.596 12.5-12.5 12.5z" fill="#c0e0ff"/><path d="m142.95 285.9v-57c0-6.904 5.596-12.5 12.5-12.5h-35c-6.904 0-12.5 5.596-12.5 12.5v57c0 6.904 5.596 12.5 12.5 12.5h35c-6.904 0-12.5-5.596-12.5-12.5z" fill="#aadaf2"/><path d="m376.45 298.4h-64c-6.904 0-12.5-5.596-12.5-12.5v-57c0-6.904 5.596-12.5 12.5-12.5h64c6.904 0 12.5 5.596 12.5 12.5v57c0 6.904-5.596 12.5-12.5 12.5z" fill="#c0e0ff"/><path d="m334.95 285.9v-57c0-6.904 5.596-12.5 12.5-12.5h-35c-6.904 0-12.5 5.596-12.5 12.5v57c0 6.904 5.596 12.5 12.5 12.5h35c-6.904 0-12.5-5.596-12.5-12.5z" fill="#aadaf2"/><path d="m291.45 327.4h-84c-5.799 0-10.5 4.701-10.5 10.5v156.679c17.145 3.801 34.96 5.821 53.25 5.821 17.757 0 35.066-1.908 51.75-5.497v-157.003c0-5.799-4.701-10.5-10.5-10.5z" fill="#c0e0ff"/><path d="m240.45 327.4h-33c-5.799 0-10.5 4.701-10.5 10.5v156.679c10.752 2.384 21.769 4.065 33 4.989v-161.668c0-5.799 4.701-10.5 10.5-10.5z" fill="#aadaf2"/></svg>